<svg xmlns="http://www.w3.org/2000/svg" viewBox="0 0 120 120" fill="none">
  <!-- Sulur kiri atas -->
  <path d="M10,10 C10,10 20,8 28,18 C36,28 30,40 38,45 C46,50 55,42 55,42"
    stroke="#C4788A" stroke-width="1.5" stroke-linecap="round" fill="none" opacity="0.7"/>
  <path d="M10,10 C10,10 8,20 18,28 C28,36 40,30 45,38 C50,46 42,55 42,55"
    stroke="#C4788A" stroke-width="1.5" stroke-linecap="round" fill="none" opacity="0.7"/>
  <!-- Bunga kecil di ujung sulur -->
  <circle cx="55" cy="42" r="4" fill="#D9A0AE" opacity="0.8"/>
  <circle cx="55" cy="42" r="2" fill="#F2DDE2" opacity="0.9"/>
  <circle cx="42" cy="55" r="4" fill="#D9A0AE" opacity="0.8"/>
  <circle cx="42" cy="55" r="2" fill="#F2DDE2" opacity="0.9"/>
  <!-- Daun kecil -->
  <ellipse cx="32" cy="22" rx="5" ry="2.5" transform="rotate(-45,32,22)" fill="#8A9E6A" opacity="0.5"/>
  <ellipse cx="22" cy="32" rx="5" ry="2.5" transform="rotate(-135,22,32)" fill="#8A9E6A" opacity="0.5"/>
  <!-- Titik dekoratif -->
  <circle cx="18" cy="14" r="1.5" fill="#B8965A" opacity="0.5"/>
  <circle cx="14" cy="18" r="1.5" fill="#B8965A" opacity="0.5"/>
  <circle cx="45" cy="28" r="1" fill="#C4788A" opacity="0.4"/>
  <circle cx="28" cy="45" r="1" fill="#C4788A" opacity="0.4"/>
</svg>
