<svg xmlns="http://www.w3.org/2000/svg" viewBox="0 0 1200 60" fill="currentColor">
  <!-- Diamond chain motif -->
  <g opacity="0.9">
    <!-- Repeating diamond pattern -->
    <path d="M0,30 L15,10 L30,30 L15,50 Z" />
    <path d="M30,30 L45,10 L60,30 L45,50 Z" />
    <path d="M60,30 L75,10 L90,30 L75,50 Z" />
    <path d="M90,30 L105,10 L120,30 L105,50 Z" />
    <path d="M120,30 L135,10 L150,30 L135,50 Z" />
    <path d="M150,30 L165,10 L180,30 L165,50 Z" />
    <path d="M180,30 L195,10 L210,30 L195,50 Z" />
    <path d="M210,30 L225,10 L240,30 L225,50 Z" />
    <path d="M240,30 L255,10 L270,30 L255,50 Z" />
    <path d="M270,30 L285,10 L300,30 L285,50 Z" />
    <path d="M300,30 L315,10 L330,30 L315,50 Z" />
    <path d="M330,30 L345,10 L360,30 L345,50 Z" />
    <path d="M360,30 L375,10 L390,30 L375,50 Z" />
    <path d="M390,30 L405,10 L420,30 L405,50 Z" />
    <path d="M420,30 L435,10 L450,30 L435,50 Z" />
    <path d="M450,30 L465,10 L480,30 L465,50 Z" />
    <path d="M480,30 L495,10 L510,30 L495,50 Z" />
    <path d="M510,30 L525,10 L540,30 L525,50 Z" />
    <path d="M540,30 L555,10 L570,30 L555,50 Z" />
    <path d="M570,30 L585,10 L600,30 L585,50 Z" />
    <path d="M600,30 L615,10 L630,30 L615,50 Z" />
    <path d="M630,30 L645,10 L660,30 L645,50 Z" />
    <path d="M660,30 L675,10 L690,30 L675,50 Z" />
    <path d="M690,30 L705,10 L720,30 L705,50 Z" />
    <path d="M720,30 L735,10 L750,30 L735,50 Z" />
    <path d="M750,30 L765,10 L780,30 L765,50 Z" />
    <path d="M780,30 L795,10 L810,30 L795,50 Z" />
    <path d="M810,30 L825,10 L840,30 L825,50 Z" />
    <path d="M840,30 L855,10 L870,30 L855,50 Z" />
    <path d="M870,30 L885,10 L900,30 L885,50 Z" />
    <path d="M900,30 L915,10 L930,30 L915,50 Z" />
    <path d="M930,30 L945,10 L960,30 L945,50 Z" />
    <path d="M960,30 L975,10 L990,30 L975,50 Z" />
    <path d="M990,30 L1005,10 L1020,30 L1005,50 Z" />
    <path d="M1020,30 L1035,10 L1050,30 L1035,50 Z" />
    <path d="M1050,30 L1065,10 L1080,30 L1065,50 Z" />
    <path d="M1080,30 L1095,10 L1110,30 L1095,50 Z" />
    <path d="M1110,30 L1125,10 L1140,30 L1125,50 Z" />
    <path d="M1140,30 L1155,10 L1170,30 L1155,50 Z" />
    <path d="M1170,30 L1185,10 L1200,30 L1185,50 Z" />
  </g>
  <!-- Horizontal lines -->
  <line x1="0" y1="5" x2="1200" y2="5" stroke="currentColor" stroke-width="1.5" />
  <line x1="0" y1="55" x2="1200" y2="55" stroke="currentColor" stroke-width="1.5" />
</svg>
